<?xml version="1.0" encoding="utf-8"?>
<!-- Uploaded to: SVG Repo, www.svgrepo.com, Generator: SVG Repo Mixer Tools -->
<svg width="800px" height="800px" viewBox="0 0 1024 1024" class="icon"  version="1.1" xmlns="http://www.w3.org/2000/svg"><path d="M106.666667 672a405.333333 138.666667 0 1 0 810.666666 0 405.333333 138.666667 0 1 0-810.666666 0Z" fill="#EF6C00" /><path d="M106.666667 544a405.333333 138.666667 0 1 0 810.666666 0 405.333333 138.666667 0 1 0-810.666666 0Z" fill="#EF6C00" /><path d="M106.666667 416a405.333333 138.666667 0 1 0 810.666666 0 405.333333 138.666667 0 1 0-810.666666 0Z" fill="#EF6C00" /><path d="M106.666667 288a405.333333 138.666667 0 1 0 810.666666 0 405.333333 138.666667 0 1 0-810.666666 0Z" fill="#EF6C00" /><path d="M512 810.666667c-213.333333 0-387.797333-56.426667-403.754667-128H106.666667c0 128 193.28 192 405.333333 192s405.333333-64 405.333333-192h-1.578666C899.797333 754.24 725.333333 810.666667 512 810.666667z" fill="#FFCC80" /><path d="M512 682.666667c-213.333333 0-387.797333-56.426667-403.754667-128H106.666667c0 128 193.28 192 405.333333 192s405.333333-64 405.333333-192h-1.578666C899.797333 626.24 725.333333 682.666667 512 682.666667z" fill="#FFCC80" /><path d="M512 554.666667c-213.333333 0-387.797333-56.426667-403.754667-128H106.666667c0 128 193.28 192 405.333333 192s405.333333-64 405.333333-192h-1.578666C899.797333 498.24 725.333333 554.666667 512 554.666667z" fill="#FFCC80" /><path d="M512 426.666667c-213.333333 0-387.797333-56.426667-403.754667-128H106.666667c0 128 193.28 192 405.333333 192s405.333333-64 405.333333-192h-1.578666C899.797333 370.24 725.333333 426.666667 512 426.666667z" fill="#FFCC80" /><path d="M256 288a256 74.666667 0 1 0 512 0 256 74.666667 0 1 0-512 0Z" fill="#BF360C" /><path d="M661.333333 693.333333a53.333333 53.333333 0 1 1-106.666666 0V346.666667c0-29.461333 106.666667-29.461333 106.666666 0V693.333333zM469.333333 494.101333a53.333333 53.333333 0 1 1-106.666666 0v-152c0-29.461333 106.666667-29.461333 106.666666 0v152zM554.666667 277.333333a42.666667 42.666667 0 0 1-85.333334 0v128a42.666667 42.666667 0 0 1 85.333334 0v-128zM661.333333 256v128c0-23.552 19.2-42.666667 29.781334-42.666667 0 0-29.781333-61.781333-29.781334-85.333333zM362.666667 256v128c0-23.552-19.2-42.666667-29.781334-42.666667 0 0 29.781333-61.781333 29.781334-85.333333z" fill="#BF360C" /></svg>